<?xml version="1.0" encoding="UTF-8" standalone="no"?>
<!DOCTYPE svg PUBLIC "-//W3C//DTD SVG 1.1//EN"
 "http://www.w3.org/Graphics/SVG/1.1/DTD/svg11.dtd">
<!-- Generated by graphviz version 2.38.0 (20140413.2041)
 -->
<!-- Title: G Pages: 1 -->
<svg width="580pt" height="824pt"
 viewBox="0.00 0.00 580.37 824.00" xmlns="http://www.w3.org/2000/svg" xmlns:xlink="http://www.w3.org/1999/xlink">
<g id="graph0" class="graph" transform="scale(1 1) rotate(0) translate(4 820)">
<title>G</title>
<polygon fill="white" stroke="none" points="-4,4 -4,-820 576.375,-820 576.375,4 -4,4"/>
<g id="clust1" class="cluster"><title>cluster_Global</title>
<path fill="none" stroke="gray" d="M62.6874,-98C62.6874,-98 552.375,-98 552.375,-98 558.375,-98 564.375,-104 564.375,-110 564.375,-110 564.375,-796 564.375,-796 564.375,-802 558.375,-808 552.375,-808 552.375,-808 62.6874,-808 62.6874,-808 56.6874,-808 50.6874,-802 50.6874,-796 50.6874,-796 50.6874,-110 50.6874,-110 50.6874,-104 56.6874,-98 62.6874,-98"/>
<text text-anchor="middle" x="307.531" y="-795.2" font-family="Times New Roman,serif" font-size="11.00" fill="gray">Global</text>
</g>
<g id="clust2" class="cluster"><title>cluster_\hamburgscleanest</title>
<path fill="none" stroke="gray" d="M70.6874,-106C70.6874,-106 544.375,-106 544.375,-106 550.375,-106 556.375,-112 556.375,-118 556.375,-118 556.375,-768 556.375,-768 556.375,-774 550.375,-780 544.375,-780 544.375,-780 70.6874,-780 70.6874,-780 64.6874,-780 58.6874,-774 58.6874,-768 58.6874,-768 58.6874,-118 58.6874,-118 58.6874,-112 64.6874,-106 70.6874,-106"/>
<text text-anchor="middle" x="307.531" y="-767.2" font-family="Times New Roman,serif" font-size="11.00" fill="gray">hamburgscleanest</text>
</g>
<g id="clust3" class="cluster"><title>cluster_\hamburgscleanest\DataTables</title>
<path fill="none" stroke="gray" d="M78.6874,-114C78.6874,-114 536.375,-114 536.375,-114 542.375,-114 548.375,-120 548.375,-126 548.375,-126 548.375,-740 548.375,-740 548.375,-746 542.375,-752 536.375,-752 536.375,-752 78.6874,-752 78.6874,-752 72.6874,-752 66.6874,-746 66.6874,-740 66.6874,-740 66.6874,-126 66.6874,-126 66.6874,-120 72.6874,-114 78.6874,-114"/>
<text text-anchor="middle" x="307.531" y="-739.2" font-family="Times New Roman,serif" font-size="11.00" fill="gray">DataTables</text>
</g>
<g id="clust4" class="cluster"><title>cluster_\hamburgscleanest\DataTables\Facades</title>
<path fill="none" stroke="gray" d="M413.375,-652C413.375,-652 482.375,-652 482.375,-652 488.375,-652 494.375,-658 494.375,-664 494.375,-664 494.375,-712 494.375,-712 494.375,-718 488.375,-724 482.375,-724 482.375,-724 413.375,-724 413.375,-724 407.375,-724 401.375,-718 401.375,-712 401.375,-712 401.375,-664 401.375,-664 401.375,-658 407.375,-652 413.375,-652"/>
<text text-anchor="middle" x="447.875" y="-711.2" font-family="Times New Roman,serif" font-size="11.00" fill="gray">Facades</text>
</g>
<g id="clust5" class="cluster"><title>cluster_\hamburgscleanest\DataTables\Helpers</title>
<path fill="none" stroke="gray" d="M399.875,-572C399.875,-572 495.875,-572 495.875,-572 501.875,-572 507.875,-578 507.875,-584 507.875,-584 507.875,-632 507.875,-632 507.875,-638 501.875,-644 495.875,-644 495.875,-644 399.875,-644 399.875,-644 393.875,-644 387.875,-638 387.875,-632 387.875,-632 387.875,-584 387.875,-584 387.875,-578 393.875,-572 399.875,-572"/>
<text text-anchor="middle" x="447.875" y="-631.2" font-family="Times New Roman,serif" font-size="11.00" fill="gray">Helpers</text>
</g>
<g id="clust6" class="cluster"><title>cluster_\hamburgscleanest\DataTables\Models</title>
<path fill="none" stroke="gray" d="M93.6874,-168C93.6874,-168 510.875,-168 510.875,-168 516.875,-168 522.875,-174 522.875,-180 522.875,-180 522.875,-552 522.875,-552 522.875,-558 516.875,-564 510.875,-564 510.875,-564 93.6874,-564 93.6874,-564 87.6874,-564 81.6874,-558 81.6874,-552 81.6874,-552 81.6874,-180 81.6874,-180 81.6874,-174 87.6874,-168 93.6874,-168"/>
<text text-anchor="middle" x="302.281" y="-551.2" font-family="Times New Roman,serif" font-size="11.00" fill="gray">Models</text>
</g>
<g id="clust7" class="cluster"><title>cluster_\hamburgscleanest\DataTables\Models\DataComponents</title>
<path fill="none" stroke="gray" d="M413.375,-276C413.375,-276 482.375,-276 482.375,-276 488.375,-276 494.375,-282 494.375,-288 494.375,-288 494.375,-390 494.375,-390 494.375,-396 488.375,-402 482.375,-402 482.375,-402 413.375,-402 413.375,-402 407.375,-402 401.375,-396 401.375,-390 401.375,-390 401.375,-288 401.375,-288 401.375,-282 407.375,-276 413.375,-276"/>
<text text-anchor="middle" x="447.875" y="-389.2" font-family="Times New Roman,serif" font-size="11.00" fill="gray">DataComponents</text>
</g>
<g id="clust8" class="cluster"><title>cluster_\hamburgscleanest\DataTables\Models\HeaderFormatters</title>
<path fill="none" stroke="gray" d="M392.875,-410C392.875,-410 502.875,-410 502.875,-410 508.875,-410 514.875,-416 514.875,-422 514.875,-422 514.875,-524 514.875,-524 514.875,-530 508.875,-536 502.875,-536 502.875,-536 392.875,-536 392.875,-536 386.875,-536 380.875,-530 380.875,-524 380.875,-524 380.875,-422 380.875,-422 380.875,-416 386.875,-410 392.875,-410"/>
<text text-anchor="middle" x="447.875" y="-523.2" font-family="Times New Roman,serif" font-size="11.00" fill="gray">HeaderFormatters</text>
</g>
<g id="clust9" class="cluster"><title>cluster_\hamburgscleanest\DataTables\Interfaces</title>
<path fill="none" stroke="gray" d="M86.6874,-572C86.6874,-572 196.687,-572 196.687,-572 202.687,-572 208.687,-578 208.687,-584 208.687,-584 208.687,-686 208.687,-686 208.687,-692 202.687,-698 196.687,-698 196.687,-698 86.6874,-698 86.6874,-698 80.6874,-698 74.6874,-692 74.6874,-686 74.6874,-686 74.6874,-584 74.6874,-584 74.6874,-578 80.6874,-572 86.6874,-572"/>
<text text-anchor="middle" x="141.687" y="-685.2" font-family="Times New Roman,serif" font-size="11.00" fill="gray">Interfaces</text>
</g>
<!-- \\hamburgscleanest\\DataTables\\Facades\\DataTable -->
<g id="node1" class="node"><title>\\hamburgscleanest\\DataTables\\Facades\\DataTable</title>
<polygon fill="none" stroke="black" points="486.375,-696 409.375,-696 409.375,-660 486.375,-660 486.375,-696"/>
<text text-anchor="middle" x="447.875" y="-675.2" font-family="Courier,monospace" font-size="11.00">DataTable</text>
</g>
<!-- \\Illuminate\\Support\\Facades\\Facade -->
<g id="node13" class="node"><title>\\Illuminate\\Support\\Facades\\Facade</title>
<ellipse fill="none" stroke="black" cx="141.687" cy="-72" rx="141.875" ry="18"/>
<text text-anchor="middle" x="141.687" y="-68.3" font-family="Times New Roman,serif" font-size="14.00" fill="gray">\Illuminate\Support\Facades\Facade</text>
</g>
<!-- \\hamburgscleanest\\DataTables\\Facades\\DataTable&#45;&gt;\\Illuminate\\Support\\Facades\\Facade -->
<g id="edge1" class="edge"><title>\\hamburgscleanest\\DataTables\\Facades\\DataTable&#45;&gt;\\Illuminate\\Support\\Facades\\Facade</title>
<path fill="none" stroke="black" d="M409.182,-674.847C390.275,-671.256 368.635,-663.716 355.375,-648 215.134,-481.779 400.673,-347.134 283.375,-164 262.834,-131.93 226.676,-108.649 196.161,-93.5301"/>
<polygon fill="none" stroke="black" points="197.427,-90.256 186.895,-89.0995 194.407,-96.5711 197.427,-90.256"/>
</g>
<!-- \\hamburgscleanest\\DataTables\\Helpers\\SessionHelper -->
<g id="node2" class="node"><title>\\hamburgscleanest\\DataTables\\Helpers\\SessionHelper</title>
<polygon fill="none" stroke="black" points="499.875,-616 395.875,-616 395.875,-580 499.875,-580 499.875,-616"/>
<text text-anchor="middle" x="447.875" y="-595.2" font-family="Courier,monospace" font-size="11.00">SessionHelper</text>
</g>
<!-- \\hamburgscleanest\\DataTables\\Models\\DataComponents\\DataScout -->
<g id="node3" class="node"><title>\\hamburgscleanest\\DataTables\\Models\\DataComponents\\DataScout</title>
<polygon fill="none" stroke="black" points="486.375,-374 409.375,-374 409.375,-338 486.375,-338 486.375,-374"/>
<text text-anchor="middle" x="447.875" y="-353.2" font-family="Courier,monospace" font-size="11.00">DataScout</text>
</g>
<!-- \\hamburgscleanest\\DataTables\\Models\\DataComponent -->
<g id="node7" class="node"><title>\\hamburgscleanest\\DataTables\\Models\\DataComponent</title>
<polygon fill="none" stroke="black" points="193.687,-347 89.6874,-347 89.6874,-311 193.687,-311 193.687,-347"/>
<text text-anchor="start" x="107.687" y="-332.2" font-family="Courier,monospace" font-size="11.00">«abstract»</text>
<text text-anchor="start" x="97.6874" y="-320.2" font-family="Courier,monospace" font-size="11.00">DataComponent</text>
</g>
<!-- \\hamburgscleanest\\DataTables\\Models\\DataComponents\\DataScout&#45;&gt;\\hamburgscleanest\\DataTables\\Models\\DataComponent -->
<g id="edge3" class="edge"><title>\\hamburgscleanest\\DataTables\\Models\\DataComponents\\DataScout&#45;&gt;\\hamburgscleanest\\DataTables\\Models\\DataComponent</title>
<path fill="none" stroke="black" d="M409.27,-352.662C358.031,-348.114 265.641,-339.914 204.228,-334.462"/>
<polygon fill="none" stroke="black" points="204.165,-330.943 193.894,-333.545 203.546,-337.916 204.165,-330.943"/>
</g>
<!-- \\hamburgscleanest\\DataTables\\Models\\DataComponents\\Sorter -->
<g id="node4" class="node"><title>\\hamburgscleanest\\DataTables\\Models\\DataComponents\\Sorter</title>
<polygon fill="none" stroke="black" points="476.375,-320 419.375,-320 419.375,-284 476.375,-284 476.375,-320"/>
<text text-anchor="middle" x="447.875" y="-299.2" font-family="Courier,monospace" font-size="11.00">Sorter</text>
</g>
<!-- \\hamburgscleanest\\DataTables\\Models\\DataComponents\\Sorter&#45;&gt;\\hamburgscleanest\\DataTables\\Models\\DataComponent -->
<g id="edge5" class="edge"><title>\\hamburgscleanest\\DataTables\\Models\\DataComponents\\Sorter&#45;&gt;\\hamburgscleanest\\DataTables\\Models\\DataComponent</title>
<path fill="none" stroke="black" d="M419.344,-304.444C370.965,-308.738 269.613,-317.734 203.934,-323.564"/>
<polygon fill="none" stroke="black" points="203.365,-320.1 193.713,-324.471 203.984,-327.073 203.365,-320.1"/>
</g>
<!-- \\hamburgscleanest\\DataTables\\Models\\HeaderFormatters\\SortableHeader -->
<g id="node5" class="node"><title>\\hamburgscleanest\\DataTables\\Models\\HeaderFormatters\\SortableHeader</title>
<polygon fill="none" stroke="black" points="503.375,-508 392.375,-508 392.375,-472 503.375,-472 503.375,-508"/>
<text text-anchor="middle" x="447.875" y="-487.2" font-family="Courier,monospace" font-size="11.00">SortableHeader</text>
</g>
<!-- \\hamburgscleanest\\DataTables\\Interfaces\\HeaderFormatter -->
<g id="node11" class="node"><title>\\hamburgscleanest\\DataTables\\Interfaces\\HeaderFormatter</title>
<polygon fill="none" stroke="black" points="200.687,-616 82.6874,-616 82.6874,-580 200.687,-580 200.687,-616"/>
<text text-anchor="middle" x="141.687" y="-595.2" font-family="Courier,monospace" font-size="11.00">HeaderFormatter</text>
</g>
<!-- \\hamburgscleanest\\DataTables\\Models\\HeaderFormatters\\SortableHeader&#45;&gt;\\hamburgscleanest\\DataTables\\Interfaces\\HeaderFormatter -->
<g id="edge4" class="edge"><title>\\hamburgscleanest\\DataTables\\Models\\HeaderFormatters\\SortableHeader&#45;&gt;\\hamburgscleanest\\DataTables\\Interfaces\\HeaderFormatter</title>
<path fill="none" stroke="black" stroke-dasharray="1,5" d="M414.939,-508.013C382.65,-525.552 330.87,-551.858 283.375,-568 260.202,-575.875 234.154,-582.118 210.828,-586.823"/>
<polygon fill="none" stroke="black" points="210.154,-583.388 201.013,-588.746 211.5,-590.258 210.154,-583.388"/>
</g>
<!-- \\hamburgscleanest\\DataTables\\Models\\HeaderFormatters\\TranslateHeader -->
<g id="node6" class="node"><title>\\hamburgscleanest\\DataTables\\Models\\HeaderFormatters\\TranslateHeader</title>
<polygon fill="none" stroke="black" points="506.875,-454 388.875,-454 388.875,-418 506.875,-418 506.875,-454"/>
<text text-anchor="middle" x="447.875" y="-433.2" font-family="Courier,monospace" font-size="11.00">TranslateHeader</text>
</g>
<!-- \\hamburgscleanest\\DataTables\\Models\\HeaderFormatters\\TranslateHeader&#45;&gt;\\hamburgscleanest\\DataTables\\Interfaces\\HeaderFormatter -->
<g id="edge6" class="edge"><title>\\hamburgscleanest\\DataTables\\Models\\HeaderFormatters\\TranslateHeader&#45;&gt;\\hamburgscleanest\\DataTables\\Interfaces\\HeaderFormatter</title>
<path fill="none" stroke="black" stroke-dasharray="1,5" d="M388.447,-446.771C376.8,-450.644 365.156,-455.893 355.375,-463 309.598,-496.26 330.396,-536.523 283.375,-568 262.125,-582.225 235.367,-589.87 210.907,-593.923"/>
<polygon fill="none" stroke="black" points="210.325,-590.471 200.948,-595.402 211.353,-597.395 210.325,-590.471"/>
</g>
<!-- \\hamburgscleanest\\DataTables\\Models\\DataTable -->
<g id="node8" class="node"><title>\\hamburgscleanest\\DataTables\\Models\\DataTable</title>
<polygon fill="none" stroke="black" points="486.375,-266 409.375,-266 409.375,-230 486.375,-230 486.375,-266"/>
<text text-anchor="middle" x="447.875" y="-245.2" font-family="Courier,monospace" font-size="11.00">DataTable</text>
</g>
<!-- \\hamburgscleanest\\DataTables\\Models\\Header -->
<g id="node9" class="node"><title>\\hamburgscleanest\\DataTables\\Models\\Header</title>
<polygon fill="none" stroke="black" points="476.375,-212 419.375,-212 419.375,-176 476.375,-176 476.375,-212"/>
<text text-anchor="middle" x="447.875" y="-191.2" font-family="Courier,monospace" font-size="11.00">Header</text>
</g>
<!-- \\hamburgscleanest\\DataTables\\Interfaces\\ColumnFormatter -->
<g id="node10" class="node"><title>\\hamburgscleanest\\DataTables\\Interfaces\\ColumnFormatter</title>
<polygon fill="none" stroke="black" points="200.687,-670 82.6874,-670 82.6874,-634 200.687,-634 200.687,-670"/>
<text text-anchor="middle" x="141.687" y="-649.2" font-family="Courier,monospace" font-size="11.00">ColumnFormatter</text>
</g>
<!-- \\hamburgscleanest\\DataTables\\DataTablesServiceProvider -->
<g id="node12" class="node"><title>\\hamburgscleanest\\DataTables\\DataTablesServiceProvider</title>
<polygon fill="none" stroke="black" points="540.375,-158 355.375,-158 355.375,-122 540.375,-122 540.375,-158"/>
<text text-anchor="middle" x="447.875" y="-137.2" font-family="Courier,monospace" font-size="11.00">DataTablesServiceProvider</text>
</g>
<!-- \\Illuminate\\Support\\ServiceProvider -->
<g id="node14" class="node"><title>\\Illuminate\\Support\\ServiceProvider</title>
<ellipse fill="none" stroke="black" cx="141.687" cy="-18" rx="140.275" ry="18"/>
<text text-anchor="middle" x="141.687" y="-14.3" font-family="Times New Roman,serif" font-size="14.00" fill="gray">\Illuminate\Support\ServiceProvider</text>
</g>
<!-- \\hamburgscleanest\\DataTables\\DataTablesServiceProvider&#45;&gt;\\Illuminate\\Support\\ServiceProvider -->
<g id="edge2" class="edge"><title>\\hamburgscleanest\\DataTables\\DataTablesServiceProvider&#45;&gt;\\Illuminate\\Support\\ServiceProvider</title>
<path fill="none" stroke="black" d="M421.887,-121.851C390.918,-100.24 335.8,-64.6125 283.375,-45 271.495,-40.5557 258.765,-36.8105 245.995,-33.6624"/>
<polygon fill="none" stroke="black" points="246.77,-30.2494 236.235,-31.3697 245.17,-37.0639 246.77,-30.2494"/>
</g>
</g>
</svg>
